<svg xmlns="http://www.w3.org/2000/svg" width="27" height="18" viewBox="0 0 27 18">
    <g fill="none" fill-rule="evenodd" transform="translate(.213 .21)">
        <path fill="#2E91FF" fill-rule="nonzero" d="M17.205 15.267a3.15 3.15 0 0 1 2.15-2.15V7.883a3.141 3.141 0 0 1-2.15-2.15H4.173a3.141 3.141 0 0 1-2.15 2.15v5.234a3.15 3.15 0 0 1 2.15 2.15h13.032zM20.222 4c.479 0 .867.39.867.867v11.266a.865.865 0 0 1-.867.867H1.156a.865.865 0 0 1-.867-.867V4.867C.289 4.39.677 4 1.156 4h19.066zm-9.533 8.017c.587 0 1.083-.694 1.083-1.517s-.496-1.517-1.083-1.517-1.083.694-1.083 1.517.496 1.517 1.083 1.517zm0-4.334c1.314 0 2.383 1.266 2.383 2.817 0 1.556-1.069 2.817-2.383 2.817S8.306 12.056 8.306 10.5c0-1.551 1.069-2.817 2.383-2.817zM6.112 9.85a.65.65 0 1 1 0 1.3H5.056a.65.65 0 1 1 0-1.3h1.056zm10.21 0a.65.65 0 1 1 0 1.3h-1.056a.65.65 0 1 1 0-1.3h1.056z"/>
        <circle cx="21.089" cy="4.951" r="4.45" fill="#FFF" stroke="#2E91FF"/>
        <rect width="1" height="5.233" x="20.589" y="2.334" fill="#2E91FF" rx=".5"/>
        <rect width="1" height="5.233" x="20.589" y="2.334" fill="#2E91FF" rx=".5" transform="rotate(-90 21.089 4.95)"/>
    </g>
</svg>
