<svg id="Capa_1" enable-background="new 0 0 235.067 235.067" height="512" viewBox="0 0 235.067 235.067" width="512" xmlns="http://www.w3.org/2000/svg"><path d="m193.633 62.579c.776.94 1.896 1.426 3.025 1.426.878 0 1.759-.294 2.488-.893 1.669-1.375 1.908-3.843.533-5.516-2.582-3.13-5.383-6.139-8.329-8.944-1.571-1.485-4.047-1.422-5.54.141-1.489 1.567-1.426 4.047.141 5.54 2.722 2.585 5.304 5.358 7.682 8.246z"/><path d="m200.258 71.699c2.01 3.15 3.851 6.464 5.481 9.857.674 1.403 2.076 2.221 3.534 2.221.572 0 1.148-.125 1.696-.388 1.951-.936 2.774-3.275 1.834-5.226-1.763-3.671-3.761-7.264-5.935-10.676-1.164-1.826-3.589-2.355-5.41-1.199-1.827 1.165-2.364 3.586-1.2 5.411z"/><path d="m214.879 114.051c.396 3.718.596 7.526.596 11.318 0 2.163 1.755 3.918 3.918 3.918s3.918-1.755 3.918-3.918c0-4.067-.215-8.153-.639-12.149-.231-2.151-2.159-3.675-4.313-3.483-2.148.231-3.707 2.163-3.48 4.314z"/><path d="m210.021 91.998c1.215 3.538 2.237 7.197 3.048 10.884.404 1.83 2.022 3.075 3.824 3.075.278 0 .564-.027.846-.09 2.116-.466 3.448-2.554 2.985-4.666-.874-3.977-1.982-7.926-3.291-11.742-.701-2.049-2.927-3.146-4.976-2.437-2.048.701-3.137 2.927-2.436 4.976z"/><path d="m15.671 129.287c2.163 0 3.918-1.755 3.918-3.918 0-3.789.2-7.597.596-11.318.227-2.151-1.332-4.082-3.483-4.313-2.139-.192-4.082 1.328-4.313 3.483-.427 3.996-.643 8.078-.643 12.149.007 2.162 1.763 3.917 3.925 3.917z"/><path d="m24.098 83.39c.548.262 1.124.388 1.696.388 1.457 0 2.86-.819 3.534-2.221 1.63-3.389 3.471-6.703 5.481-9.857 1.164-1.826.627-4.247-1.199-5.41-1.818-1.156-4.243-.627-5.41 1.199-2.174 3.412-4.172 7.005-5.935 10.676-.937 1.946-.114 4.285 1.833 5.225z"/><path d="m17.328 105.867c.282.063.568.09.846.09 1.798 0 3.42-1.246 3.824-3.075.811-3.687 1.837-7.346 3.048-10.884.701-2.045-.388-4.274-2.437-4.976-2.049-.709-4.274.388-4.976 2.437-1.309 3.816-2.417 7.765-3.291 11.742-.461 2.111.875 4.199 2.986 4.666z"/><path d="m38.406 64.005c1.132 0 2.253-.486 3.025-1.426 2.378-2.887 4.964-5.661 7.679-8.243 1.567-1.493 1.634-3.973.141-5.54-1.493-1.563-3.973-1.626-5.54-.141-2.946 2.801-5.751 5.81-8.329 8.944-1.375 1.669-1.136 4.141.533 5.516.732.6 1.614.89 2.491.89z"/><path d="m121.452 31.342h-15.672v15.671h15.671c4.321 0 7.836-3.514 7.836-7.836s-3.514-7.835-7.835-7.835z"/><path d="m168.465 50.931c0-28.082-22.849-50.931-50.931-50.931s-50.932 22.849-50.932 50.931 22.849 50.931 50.931 50.931 50.932-22.848 50.932-50.931zm-31.342 11.754c0 7.279-5.015 13.364-11.753 15.115v4.474c0 2.163-1.755 3.918-3.918 3.918s-3.918-1.755-3.918-3.918v-3.918h-7.836v3.918c0 2.163-1.755 3.918-3.918 3.918s-3.918-1.755-3.918-3.918v-3.918c-2.163 0-3.918-1.755-3.918-3.918v-23.507-23.506c0-2.163 1.755-3.918 3.918-3.918v-3.918c0-2.163 1.755-3.918 3.918-3.918s3.918 1.755 3.918 3.918v3.918h7.836v-3.918c0-2.163 1.755-3.918 3.918-3.918s3.918 1.755 3.918 3.918v4.474c6.739 1.751 11.753 7.836 11.753 15.115 0 4.701-2.123 8.878-5.414 11.753 3.286 2.876 5.414 7.052 5.414 11.754z"/><path d="m121.452 54.849h-15.672v15.671h15.671c4.321 0 7.836-3.514 7.836-7.836s-3.514-7.835-7.835-7.835z"/><circle cx="50.931" cy="172.383" r="7.836"/><circle cx="39.178" cy="195.89" r="7.836"/><circle cx="62.685" cy="195.89" r="7.836"/><path d="m50.931 133.205c-28.082 0-50.931 22.848-50.931 50.931s22.849 50.931 50.931 50.931 50.931-22.849 50.931-50.931-22.848-50.931-50.931-50.931zm11.754 78.356c-4.701 0-8.878-2.123-11.753-5.414-2.876 3.291-7.052 5.414-11.753 5.414-8.643 0-15.671-7.029-15.671-15.671 0-8.078 6.167-14.668 14.026-15.507-1.41-2.351-2.272-5.066-2.272-8 0-8.643 7.029-15.671 15.671-15.671s15.671 7.029 15.671 15.671c0 2.934-.862 5.653-2.272 8 7.859.838 14.026 7.428 14.026 15.507-.002 8.642-7.035 15.671-15.673 15.671z"/><path d="m184.136 180.218c.494 0 .987.094 1.457.278l10.022 4.008-11.475-22.95-11.475 22.95 10.018-4.008c.466-.184.96-.278 1.453-.278z"/><path d="m184.136 133.205c-28.083 0-50.931 22.849-50.931 50.931s22.849 50.931 50.931 50.931 50.931-22.849 50.931-50.931-22.848-50.931-50.931-50.931zm23.421 59.445c-.27 1.528-1.54 2.692-2.503 3.847-.995 1.199-1.994 2.394-2.993 3.593-1.265 1.52-2.531 3.04-3.8 4.56-1.332 1.598-2.668 3.201-4 4.799-1.199 1.438-2.394 2.872-3.593 4.31-.858 1.03-1.716 2.061-2.574 3.087-.317.38-.635.76-.952 1.14-.744.893-1.845 1.41-3.009 1.41s-2.264-.517-3.009-1.41c-.615-.74-1.23-1.481-1.849-2.221-1.493-1.79-2.981-3.577-4.474-5.367-1.83-2.198-3.663-4.392-5.493-6.59-1.634-1.963-3.271-3.926-4.905-5.888-.529-.635-1.062-1.273-1.591-1.908-.819-.983-1.779-1.857-2.057-3.166-.372-1.743.588-3.24 1.332-4.729.768-1.536 1.536-3.072 2.304-4.607 1.046-2.092 2.092-4.188 3.138-6.28 1.183-2.362 2.366-4.725 3.546-7.091 1.171-2.343 2.343-4.686 3.514-7.032 1.019-2.037 2.037-4.071 3.052-6.104.721-1.438 1.438-2.876 2.155-4.314.274-.552.552-1.101.827-1.653 1.328-2.656 5.681-2.656 7.009 0 .161.321.321.643.482.96.435.874.874 1.751 1.312 2.625.65 1.301 1.305 2.605 1.955 3.906.803 1.602 1.602 3.205 2.406 4.807.889 1.775 1.775 3.55 2.664 5.328.909 1.822 1.822 3.644 2.731 5.461.87 1.74 1.739 3.479 2.609 5.219.764 1.532 1.532 3.06 2.296 4.592.596 1.195 1.195 2.39 1.79 3.581.364.729.74 1.457 1.097 2.19.435.901.737 1.783.599 2.797-.001.057-.008.104-.016.148z"/><path d="m171.008 193.605 13.128 15.754 13.125-15.754-13.125-5.249z"/></svg>