<svg xmlns="http://www.w3.org/2000/svg" width="17" height="21" viewBox="0 0 17 21">
    <path fill="#FFF" fill-rule="nonzero" d="M14.171 7.51h-1.15V5.272c0-2.527-2.015-4.628-4.543-4.667A4.62 4.62 0 0 0 3.812 5.21V7.51H2.66A1.924 1.924 0 0 0 .742 9.429v9.209c0 1.055.863 1.919 1.918 1.919h11.511a1.924 1.924 0 0 0 1.919-1.919V9.429a1.924 1.924 0 0 0-1.919-1.918zm-5.084 5.987v3.3c0 .359-.278.67-.638.69a.672.672 0 0 1-.705-.672v-3.318a1.535 1.535 0 0 1-.858-1.52 1.543 1.543 0 0 1 1.42-1.392 1.536 1.536 0 0 1 .781 2.912zm2.59-5.986H5.154V5.209c0-.868.341-1.684.96-2.302a3.233 3.233 0 0 1 2.302-.96c.868 0 1.683.34 2.302.96.619.618.96 1.434.96 2.302V7.51z" opacity=".9"/>
</svg>
