<svg xmlns="http://www.w3.org/2000/svg" width="23" height="24" viewBox="0 0 23 24">
    <g fill="#2E91FF" fill-rule="nonzero">
        <path d="M21.945 21.682h-20.9a1.045 1.045 0 1 0 0 2.09h20.9a1.045 1.045 0 1 0 0-2.09zM2.351 18.964a1.045 1.045 0 1 0 0 2.091H20.64a1.045 1.045 0 0 0 0-2.09h-.261V9.558h.26a.522.522 0 1 0 0-1.045H2.352a.522.522 0 1 0 0 1.045h.262v9.405H2.35zM18.287 9.56v9.405h-3.134V9.559h3.134zm-5.225 0v9.405H9.927V9.559h3.135zm-8.36 0h3.135v9.405H4.702V9.559zM1.045 7.575h20.91a1.045 1.045 0 0 0 .34-2.034L11.924.875a1.047 1.047 0 0 0-.858 0L.617 5.577a1.045 1.045 0 0 0 .428 1.998z"/>
    </g>
</svg>
