<svg width="31" height="31" viewBox="0 0 31 31" fill="none" xmlns="http://www.w3.org/2000/svg">
<path d="M30.3972 13.8835C30.3334 13.731 30.2422 13.5923 30.1259 13.476L26.3769 9.72726C25.8882 9.23976 25.0981 9.23976 24.6094 9.72726C24.1206 10.216 24.1206 11.0072 24.6094 11.4947L26.2257 13.111H19.2427C18.5515 13.111 17.9927 13.671 17.9927 14.361C17.9927 15.051 18.5515 15.6109 19.2427 15.6109H26.2256L24.6093 17.2272C24.1205 17.7159 24.1205 18.5072 24.6093 18.9947C24.8531 19.2396 25.1731 19.3609 25.4931 19.3609C25.8132 19.3609 26.1332 19.2397 26.3769 18.9947L30.1259 15.2459C30.2422 15.1309 30.3334 14.9921 30.3972 14.8384C30.5234 14.5335 30.5234 14.1885 30.3972 13.8835Z" fill="#A7A7A7"/>
<path d="M21.7433 18.1113C21.052 18.1113 20.4932 18.6713 20.4932 19.3613V25.6113H15.4929V5.6113C15.4929 5.06005 15.1304 4.57255 14.6016 4.41382L10.26 3.11134H20.4932V9.36135C20.4932 10.0513 21.052 10.6113 21.7433 10.6113C22.4346 10.6113 22.9934 10.0513 22.9934 9.36135V1.86136C22.9934 1.17131 22.4346 0.611328 21.7433 0.611328H1.74201C1.697 0.611328 1.65698 0.630078 1.61327 0.635059C1.55449 0.641328 1.50076 0.651289 1.44451 0.665058C1.31325 0.698808 1.19447 0.750078 1.08325 0.820039C1.05577 0.837558 1.02202 0.838789 0.995766 0.858769C0.985687 0.866328 0.981936 0.880097 0.971916 0.887597C0.835677 0.995058 0.721939 1.12631 0.639434 1.28258C0.621913 1.31633 0.618163 1.3526 0.604451 1.38758C0.564429 1.48256 0.520715 1.57508 0.505714 1.68008C0.499444 1.71758 0.510695 1.75256 0.509464 1.78883C0.508233 1.81385 0.491943 1.83635 0.491943 1.86131V26.8613C0.491943 27.4575 0.913202 27.97 1.49701 28.0863L13.9978 30.5863C14.0791 30.6038 14.1616 30.6113 14.2428 30.6113C14.5291 30.6113 14.8103 30.5126 15.0353 30.3276C15.3241 30.0901 15.4929 29.7363 15.4929 29.3613V28.1113H21.7433C22.4346 28.1113 22.9934 27.5513 22.9934 26.8613V19.3613C22.9934 18.6713 22.4346 18.1113 21.7433 18.1113Z" fill="#A7A7A7"/>
</svg>
