<svg xmlns="http://www.w3.org/2000/svg" xmlns:xlink="http://www.w3.org/1999/xlink" width="26" height="26" viewBox="0 0 26 26">
    <defs>
        <circle id="a" cx="12.5" cy="12.5" r="12.454"/>
    </defs>
    <g fill="none" fill-rule="evenodd" opacity=".9" transform="translate(.4 .741)">
        <mask id="b" fill="#fff">
            <use xlink:href="#a"/>
        </mask>
        <use fill="#FFF" xlink:href="#a"/>
        <g mask="url(#b)">
            <path fill="#043CAE" d="M-5.39 0h35v25h-35z"/>
            <path fill="#FFD429" d="M12.11 6.34l-.969.283.284-.968-.284-.968.968.284.968-.284-.283.968.283.968-.968-.283zm0 13.689l-.969.284.284-.968-.284-.968.968.283.968-.283-.283.968.283.968-.968-.284zm6.844-6.845l-.968.284.283-.968-.283-.968.968.284.968-.284-.284.968.284.968-.968-.284zm-13.69 0l-.967.284.283-.968-.283-.968.968.284.968-.284-.284.968.284.968-.968-.284zm12.773-3.422l-.968.284.283-.968-.283-.968.968.283.968-.283-.284.968.284.968-.968-.284zM6.182 16.607l-.968.283.283-.968-.283-.968.968.284.968-.284-.284.968.284.968-.968-.283zm9.35-9.35l-.968.283.283-.968-.283-.968.968.284.968-.284-.284.968.284.968-.968-.283zM8.687 19.112l-.968.284.284-.968-.284-.968.968.283.968-.283-.283.968.283.968-.968-.284zm9.35-2.505l-.968.283.283-.968-.283-.968.968.284.968-.284-.284.968.284.968-.968-.283zM6.182 9.762l-.968.284.283-.968-.283-.968.968.283.968-.283-.284.968.284.968-.968-.284zm9.35 9.35l-.968.284.283-.968-.283-.968.968.283.968-.283-.284.968.284.968-.968-.284zM8.687 7.257l-.968.283.284-.968-.284-.968.968.284.968-.284-.283.968.283.968-.968-.283z"/>
        </g>
    </g>
</svg>
