<svg xmlns="http://www.w3.org/2000/svg" width="14" height="14" viewBox="0 0 14 14">
    <path fill="#2E91FF" fill-rule="nonzero" d="M12.258 6.998c0-.689.43-1.276 1.04-1.512a6.425 6.425 0 0 0-.777-1.873 1.622 1.622 0 0 1-1.804-.331 1.622 1.622 0 0 1-.335-1.805A6.406 6.406 0 0 0 8.512.7 1.622 1.622 0 0 1 7 1.74c-.689 0-1.28-.433-1.512-1.04a6.425 6.425 0 0 0-1.873.777 1.617 1.617 0 0 1-2.14 2.136 6.567 6.567 0 0 0-.773 1.876 1.62 1.62 0 0 1 .003 3.025c.16.672.426 1.302.777 1.873a1.622 1.622 0 0 1 1.8.335c.487.485.598 1.207.336 1.8.57.352 1.204.617 1.873.778a1.615 1.615 0 0 1 3.018 0 6.425 6.425 0 0 0 1.873-.777 1.624 1.624 0 0 1 .335-1.801 1.624 1.624 0 0 1 1.8-.335c.352-.57.617-1.204.778-1.873a1.629 1.629 0 0 1-1.037-1.516zM7.03 9.62a2.624 2.624 0 1 1 0-5.248 2.624 2.624 0 1 1 0 5.248z"/>
</svg>
