<svg xmlns="http://www.w3.org/2000/svg" width="13" height="13" viewBox="0 0 13 13">
    <g fill="#2E91FF" fill-rule="nonzero">
        <path d="M6.707.5a6.202 6.202 0 1 0-.01 12.404 6.212 6.212 0 0 0 6.207-6.202A6.202 6.202 0 0 0 6.707.5zm-.01 11.372a5.17 5.17 0 1 1 0-10.34 5.17 5.17 0 0 1 0 10.34z"/>
        <path d="M8.372 6.4c.415-.234.64-.702.562-1.172-.096-.725-.96-.998-1.642-1.056v-1.09H6.62v1.08h-.45v-1.08h-.673v1.08H4.143v.697h.504c.226 0 .336.067.336.25v2.99c0 .25-.124.326-.259.326h-.513v.71h1.305v1.105h.677V9.136h.451v1.104h.658V9.136h.144c1.382 0 1.843-.677 1.843-1.599A1.195 1.195 0 0 0 8.372 6.4zM6.17 4.902h.48c.336 0 .999.057.999.605a.677.677 0 0 1-.59.715h-.889v-1.32zm.744 3.456v-.005H6.17v-1.44h.864c.202 0 .96.067.96.605s-.36.84-1.08.84z"/>
    </g>
</svg>
