<svg xmlns="http://www.w3.org/2000/svg" width="18" height="18" viewBox="0 0 18 18">
    <path fill="#2E91FF" fill-rule="nonzero" d="M14.8 1.334h-.98V.683a.512.512 0 1 0-1.023 0v.651H5.256V.683a.512.512 0 0 0-1.023 0v.651H3.25A2.4 2.4 0 0 0 .855 3.732v11.266a2.4 2.4 0 0 0 2.396 2.396h11.55a2.4 2.4 0 0 0 2.397-2.397V3.732A2.4 2.4 0 0 0 14.8 1.334zm1.375 13.663c-.001.758-.616 1.373-1.375 1.374H3.251a1.375 1.375 0 0 1-1.373-1.373V6.283h14.298l-.001 8.714zm0-9.737H1.878V3.732c0-.759.615-1.374 1.373-1.375h.982v.589a.512.512 0 0 0 1.023 0v-.589h7.542v.589a.512.512 0 1 0 1.023 0v-.589h.98c.759.001 1.373.616 1.375 1.374l-.001 1.529zM3.753 9.398a1.066 1.066 0 1 1 2.131 0 1.066 1.066 0 0 1-2.131 0zm4.208 0a1.066 1.066 0 1 1 2.131 0 1.066 1.066 0 0 1-2.131 0zm4.207 0a1.066 1.066 0 1 1 2.132 0 1.066 1.066 0 0 1-2.132 0zm-8.415 3.477a1.066 1.066 0 1 1 2.131 0 1.066 1.066 0 0 1-2.131 0zm4.208 0a1.066 1.066 0 1 1 2.131-.003 1.066 1.066 0 0 1-2.131.003zm4.207 0a1.066 1.066 0 1 1 2.132 0 1.066 1.066 0 0 1-2.132 0z"/>
</svg>
