<svg width="97" height="72" viewBox="0 0 97 72" fill="none" xmlns="http://www.w3.org/2000/svg">
<path opacity="0.1" fill-rule="evenodd" clip-rule="evenodd" d="M58.3096 107.128C89.7682 107.128 115.27 83.3119 115.27 53.9335C115.27 24.5551 89.7682 0.739136 58.3096 0.739136C26.851 0.739136 1.34875 24.5551 1.34875 53.9335C1.34875 83.3119 26.851 107.128 58.3096 107.128Z" stroke="#019CF9"/>
<path opacity="0.1" fill-rule="evenodd" clip-rule="evenodd" d="M58.3096 98.0949C84.4261 98.0949 105.598 78.3231 105.598 53.9335C105.598 29.5438 84.4261 9.77213 58.3096 9.77213C32.193 9.77213 11.0213 29.5438 11.0213 53.9335C11.0213 78.3231 32.193 98.0949 58.3096 98.0949Z" stroke="#019CF9"/>
<path opacity="0.1" fill-rule="evenodd" clip-rule="evenodd" d="M58.3096 89.0619C79.0842 89.0619 95.9253 73.3344 95.9253 53.9335C95.9253 34.5326 79.0842 18.8051 58.3096 18.8051C37.535 18.8051 20.6939 34.5326 20.6939 53.9335C20.6939 73.3344 37.535 89.0619 58.3096 89.0619Z" stroke="#019CF9"/>
<path opacity="0.1" fill-rule="evenodd" clip-rule="evenodd" d="M58.3096 81.0325C74.3357 81.0325 87.3274 68.8999 87.3274 53.9335C87.3274 38.9671 74.3357 26.8345 58.3096 26.8345C42.2835 26.8345 29.2918 38.9671 29.2918 53.9335C29.2918 68.8999 42.2835 81.0325 58.3096 81.0325Z" stroke="#019CF9"/>
</svg>
