<svg xmlns="http://www.w3.org/2000/svg" width="34" height="21" viewBox="0 0 34 21">
    <g fill="#FFF" fill-rule="nonzero" transform="rotate(90 16.75 16.75)">
        <path d="M19.898 18.359c-.37-.29-4.236-4.58-5.28-5.186V2.041A2.04 2.04 0 0 0 12.578 0H2.065a2.04 2.04 0 0 0-2.04 2.04v19.49a2.04 2.04 0 0 0 2.04 2.041H6.644l-.188-1.602c-.06-.054-.101-.088-.162-.142h-2.02a2.08 2.08 0 0 0 .033-.869 2.08 2.08 0 0 0-1.656-1.677c-.31-.06-.613-.04-.89.027V4.135a2.068 2.068 0 0 0 2.411-2.398h6.277a2.064 2.064 0 0 0 2.411 2.398V23.201c-.713-.525-1.508-2.169-1.508-2.169s-.39-4.37-2.606-4.37c-.061 0-.115 0-.176.006 0 0-1.677.142-.29 4.937l.62 5.327s.694 2.89 2.607 4.89v.592c0 .317.256.58.579.58h6.23a.576.576 0 0 0 .572-.513c.222-2.074 1.084-9.785 1.59-10.957a2.21 2.21 0 0 0 .174-.58c.115-.66.155-1.871-.754-2.585z"/>
        <circle cx="7.547" cy="5.408" r="1.239"/>
        <path d="M2.846 11.927a4.484 4.484 0 0 0 3.495 4.371 3.17 3.17 0 0 1 .196-.323c.66-.963 1.555-1.138 1.858-1.165a3.446 3.446 0 0 1 1.987.384 4.48 4.48 0 0 0-3.064-7.745 4.475 4.475 0 0 0-4.472 4.478zm1.791-.397c.27 0 .276 0 .317-.27a2.66 2.66 0 0 1 .175-.599c.047-.108.121-.148.229-.114.168.047.33.094.498.148.155.047.175.1.108.249a1.852 1.852 0 0 0-.188.95.612.612 0 0 0 .053.249c.128.29.445.33.64.087.101-.121.169-.262.23-.41.107-.257.208-.512.336-.748.424-.768 1.387-.977 2.047-.431.236.195.398.451.478.747.034.128.101.189.236.182.135-.007.263 0 .397 0 .122 0 .182.06.182.175.007.142.007.283 0 .425 0 .128-.074.181-.195.181h-.29c-.215 0-.222.007-.255.216a2.73 2.73 0 0 1-.216.761c-.094.189-.141.209-.337.155a8.3 8.3 0 0 1-.437-.128c-.169-.054-.19-.101-.108-.256.141-.263.215-.546.256-.842a.973.973 0 0 0-.074-.552c-.142-.33-.526-.384-.755-.101-.08.094-.134.202-.182.316-.127.29-.222.593-.383.862-.263.445-.627.721-1.166.687-.606-.033-.99-.383-1.192-.936-.08-.229-.08-.229-.323-.235h-.242c-.182-.007-.216-.034-.216-.216v-.168c-.007-.377-.007-.377.377-.384z"/>
    </g>
</svg>
