<svg width="116" height="39" viewBox="0 0 116 39" fill="none" xmlns="http://www.w3.org/2000/svg">
<path opacity="0.1" fill-rule="evenodd" clip-rule="evenodd" d="M58.21 37.5401C89.6686 37.5401 115.171 13.7241 115.171 -15.6543C115.171 -45.0328 89.6686 -68.8487 58.21 -68.8487C26.7514 -68.8487 1.24915 -45.0328 1.24915 -15.6543C1.24915 13.7241 26.7514 37.5401 58.21 37.5401Z" stroke="#019CF9"/>
<path opacity="0.1" fill-rule="evenodd" clip-rule="evenodd" d="M58.2099 28.5071C84.3265 28.5071 105.498 8.73535 105.498 -15.6543C105.498 -40.044 84.3265 -59.8157 58.2099 -59.8157C32.0933 -59.8157 10.9216 -40.044 10.9216 -15.6543C10.9216 8.73535 32.0933 28.5071 58.2099 28.5071Z" stroke="#019CF9"/>
<path opacity="0.1" fill-rule="evenodd" clip-rule="evenodd" d="M58.21 19.474C78.9845 19.474 95.8256 3.74654 95.8256 -15.6543C95.8256 -35.0552 78.9845 -50.7827 58.21 -50.7827C37.4354 -50.7827 20.5943 -35.0552 20.5943 -15.6543C20.5943 3.74654 37.4354 19.474 58.21 19.474Z" stroke="#019CF9"/>
<path opacity="0.1" fill-rule="evenodd" clip-rule="evenodd" d="M58.2099 11.4447C74.236 11.4447 87.2277 -0.687929 87.2277 -15.6543C87.2277 -30.6207 74.236 -42.7533 58.2099 -42.7533C42.1838 -42.7533 29.1921 -30.6207 29.1921 -15.6543C29.1921 -0.687929 42.1838 11.4447 58.2099 11.4447Z" stroke="#019CF9"/>
</svg>
