<svg xmlns="http://www.w3.org/2000/svg" width="13" height="9" viewBox="0 0 13 9">
    <g fill="#2E91FF" fill-rule="nonzero" transform="translate(.25 .5)">
        <path d="M9.137 5.1a.638.638 0 0 0 0 1.275h.005a1.055 1.055 0 0 1-.217-.638c0-.24.083-.458.217-.637h-.005z"/>
        <circle cx="9.988" cy="5.737" r="1"/>
        <path d="M11.475 0h-10.2C.572 0 0 .572 0 1.275v5.95C0 7.928.572 8.5 1.275 8.5h10.2c.703 0 1.275-.572 1.275-1.275v-5.95C12.75.572 12.178 0 11.475 0zM4.037 3.825h.85a.213.213 0 0 1 0 .425h-.85a.213.213 0 0 1 0-.425zm-2.124 0h.85a.213.213 0 0 1 0 .425h-.85a.213.213 0 0 1 0-.425zm0 1.275h2.124a.213.213 0 0 1 0 .425H1.913a.213.213 0 0 1 0-.425zm4.675 1.7H1.912a.213.213 0 0 1 0-.425h4.676a.213.213 0 0 1 0 .425zm.425-2.55h-.85a.213.213 0 0 1 0-.425h.85a.213.213 0 0 1 0 .425zM9.988 6.8c-.154 0-.3-.034-.432-.093a1.063 1.063 0 0 1-.418.093 1.064 1.064 0 0 1 0-2.125c.144 0 .285.037.417.094A1.064 1.064 0 1 1 9.987 6.8z"/>
    </g>
</svg>
