<svg width="13" height="14" viewBox="0 0 13 14" fill="none" xmlns="http://www.w3.org/2000/svg">
<g clip-path="url(#clip0)">
<path d="M12.7291 6.66587C12.7291 8.31795 12.0729 9.90236 10.9047 11.0706C9.73647 12.2387 8.15206 12.895 6.49998 12.895C4.8479 12.895 3.26349 12.2387 2.0953 11.0706C0.927101 9.90236 0.270815 8.31795 0.270816 6.66587" stroke="white" stroke-width="0.7" stroke-linecap="round" stroke-linejoin="round"/>
<path d="M6.50005 6.66587C7.3938 6.89607 7.89755 7.58941 7.62942 8.21503C7.3613 8.84066 6.41609 9.15753 5.52234 8.92732" stroke="white" stroke-width="0.7" stroke-linecap="round" stroke-linejoin="round"/>
<path d="M6.49992 6.66586C5.60617 6.43565 5.10242 5.74232 5.37055 5.1167C5.63867 4.49107 6.58388 4.1742 7.47763 4.40441" stroke="white" stroke-width="0.7" stroke-linecap="round" stroke-linejoin="round"/>
<path d="M6.5 9.91586L6.5 3.14503" stroke="white" stroke-width="0.7" stroke-linecap="round" stroke-linejoin="round"/>
<path d="M2.70835 5.04086L2.70835 1.52003" stroke="white" stroke-width="0.7" stroke-linecap="round" stroke-linejoin="round"/>
<path d="M4.0625 2.33253L2.70833 0.978368L1.35417 2.33253" stroke="white" stroke-width="0.7" stroke-linecap="round" stroke-linejoin="round"/>
<path d="M6.49998 0.436696C8.15206 0.436696 9.73647 1.09298 10.9047 2.26118C12.0729 3.42937 12.7291 5.01379 12.7291 6.66586" stroke="white" stroke-width="0.7" stroke-linecap="round" stroke-linejoin="round"/>
<path d="M6.49998 0.436696C8.15206 0.436696 9.73647 1.09298 10.9047 2.26118C12.0729 3.42937 12.7291 5.01379 12.7291 6.66586" stroke="white" stroke-width="0.7" stroke-linecap="round" stroke-linejoin="round"/>
<path d="M1.01831 3.70295C0.527005 4.6132 0.270108 5.63148 0.27081 6.66586" stroke="white" stroke-width="0.7" stroke-linecap="round" stroke-linejoin="round"/>
<path d="M6.5 0.436698C5.78062 0.437946 5.06685 0.563472 4.39021 0.807739" stroke="white" stroke-width="0.7" stroke-linecap="round" stroke-linejoin="round"/>
</g>
<defs>
<clipPath id="clip0">
<rect width="13" height="13" fill="white" transform="translate(13 13.1659) rotate(-180)"/>
</clipPath>
</defs>
</svg>
