<svg xmlns="http://www.w3.org/2000/svg" width="20" height="17" viewBox="0 0 20 17">
    <g fill="#2E91FF" fill-rule="nonzero">
        <path d="M16.429 2.536H3.57V1.82c0-.789.64-1.428 1.429-1.428h13.571c.79 0 1.429.64 1.429 1.428v10c0 .79-.64 1.429-1.429 1.429h-.714V3.964c0-.789-.64-1.428-1.428-1.428z"/>
        <path d="M15 3.964H1.429C.639 3.964 0 4.604 0 5.393v9.286c0 .789.64 1.428 1.429 1.428H15c.79 0 1.429-.64 1.429-1.428V5.393c0-.79-.64-1.429-1.429-1.429zm-4.286 7.143H8.571v2.143a.715.715 0 0 1-1.429 0v-2.143H5a.715.715 0 0 1 0-1.429h2.143V7.537a.715.715 0 0 1 1.429 0v2.143h2.142a.715.715 0 0 1 0 1.429z"/>
    </g>
</svg>
