<svg height="512" viewBox="0 0 64 64" width="512" xmlns="http://www.w3.org/2000/svg"><g id="Global_network" data-name="Global network"><path d="m32 3a28.988 28.988 0 0 0 -25.4 15h11.387c2.725-8.942 7.978-15 14.013-15z" fill="#005ece"/><path d="m46.013 18h11.387a28.988 28.988 0 0 0 -25.4-15c6.035 0 11.288 6.058 14.013 15z" fill="#57a4ff"/><path d="m16 32h-13a28.864 28.864 0 0 0 3.6 14h11.387a48.388 48.388 0 0 1 -1.987-14z" fill="#00479b"/><path d="m48 32h13a28.864 28.864 0 0 0 -3.6-14h-11.387a48.388 48.388 0 0 1 1.987 14z" fill="#2488ff"/><path d="m17.987 18h-11.387a28.864 28.864 0 0 0 -3.6 14h13a48.388 48.388 0 0 1 1.987-14z" fill="#004fac"/><path d="m17.987 46h-11.387a28.988 28.988 0 0 0 25.4 15c-6.035 0-11.288-6.058-14.013-15z" fill="#003f8a"/><path d="m48 32a48.388 48.388 0 0 1 -1.987 14h11.387a28.864 28.864 0 0 0 3.6-14z" fill="#006df0"/><path d="m32 61a28.988 28.988 0 0 0 25.4-15h-11.387c-2.725 8.942-7.978 15-14.013 15z" fill="#005ece"/><path d="m32.55 3.01c-.18 0-.37-.01-.55-.01.2 0 .393.011.589.015a.374.374 0 0 0 -.039-.005z" fill="#2488ff"/><path d="m31.411 3.015c.2 0 .391-.015.589-.015-.18 0-.37.01-.55.01a.374.374 0 0 0 -.039.005z" fill="#2488ff"/><path d="m16 32a48.388 48.388 0 0 0 1.987 14h14.013v-14z" fill="#004fac"/><path d="m32 18h-14.013a48.388 48.388 0 0 0 -1.987 14h16z" fill="#005ece"/><path d="m32 46h14.013a48.388 48.388 0 0 0 1.987-14h-16z" fill="#005ece"/><path d="m32 18v14h16a48.388 48.388 0 0 0 -1.987-14z" fill="#006df0"/><path d="m46.013 46h-14.013v15c6.035 0 11.288-6.058 14.013-15z" fill="#004fac"/><path d="m17.987 46c2.725 8.942 7.978 15 14.013 15v-15z" fill="#00479b"/><path d="m17.987 18h14.013v-15c-6.035 0-11.288 6.058-14.013 15z" fill="#006df0"/><path d="m46.013 18c-2.725-8.942-7.978-15-14.013-15v15z" fill="#2488ff"/><path d="m31.45 60.99c.18 0 .37.01.55.01-.2 0-.392-.011-.589-.015a.374.374 0 0 0 .039.005z" fill="#2488ff"/><path d="m32.55 60.99a.374.374 0 0 0 .039-.005c-.2 0-.391.015-.589.015.18 0 .37-.01.55-.01z" fill="#2488ff"/><path d="m15.019 45.664a3 3 0 0 0 5.962.672 2.9 2.9 0 0 0 0-.336 2.992 2.992 0 0 0 -5.966-.336z" fill="none"/><g fill="#ffcd00"><circle cx="18" cy="18" r="3"/><path d="m15.019 45.664a3 3 0 1 0 3.317-2.645 2.965 2.965 0 0 0 -1.116.09 3 3 0 0 0 -2.201 2.555z"/><circle cx="46" cy="46" r="3"/><circle cx="32" cy="46" r="3"/><circle cx="32" cy="18" r="3"/><circle cx="46" cy="18" r="3"/><circle cx="32" cy="32" r="3"/><path d="m47.91 34.991c.031 0 .059.009.09.009a3 3 0 0 0 0-6c-.031 0-.059.008-.09.009a2.992 2.992 0 0 0 0 5.982z"/><path d="m16.09 29.009c-.031 0-.059-.009-.09-.009a3 3 0 0 0 0 6c.031 0 .059-.008.09-.009a2.992 2.992 0 0 0 0-5.982z"/></g><path d="m32 2a30 30 0 1 0 30 30 30.034 30.034 0 0 0 -30-30zm17.858 43a4 4 0 0 0 -1.933-2.485 48.088 48.088 0 0 0 .92-6.609 4 4 0 0 0 3.013-2.906h8.1a27.792 27.792 0 0 1 -3.178 12zm-5.858 1a2 2 0 1 1 2 2 2 2 0 0 1 -2-2zm-1.858-1h-6.284a4 4 0 0 0 -2.858-2.858v-6.284a4 4 0 0 0 2.858-2.858h8.284a3.989 3.989 0 0 0 2.7 2.81 45.891 45.891 0 0 1 -.852 6.19 4 4 0 0 0 -3.848 3zm-10.142 3a2 2 0 1 1 2-2 2 2 0 0 1 -2 2zm-3.858-3h-6.276a3.971 3.971 0 0 0 -3.418-2.975 4.2 4.2 0 0 0 -.434-.006 45.816 45.816 0 0 1 -.861-6.209 3.989 3.989 0 0 0 2.705-2.81h8.284a4 4 0 0 0 2.858 2.858v6.284a4 4 0 0 0 -2.858 2.858zm-8.155 1.224a2 2 0 0 1 -2.211 1.763 2 2 0 0 1 -1.763-2.211 2 2 0 0 1 2.211-1.763 2 2 0 0 1 1.763 2.211zm-5.845-1.224h-6.922a27.792 27.792 0 0 1 -3.178-12h8.1a4 4 0 0 0 3.013 2.906 47.965 47.965 0 0 0 .918 6.6 3.827 3.827 0 0 0 -1.931 2.494zm0-26a4 4 0 0 0 1.933 2.485 48.088 48.088 0 0 0 -.92 6.609 4 4 0 0 0 -3.013 2.906h-8.1a27.792 27.792 0 0 1 3.178-12zm5.858-1a2 2 0 1 1 -2-2 2 2 0 0 1 2 2zm1.858 1h6.284a4 4 0 0 0 2.858 2.858v6.284a4 4 0 0 0 -2.858 2.858h-8.284a3.989 3.989 0 0 0 -2.705-2.81 45.891 45.891 0 0 1 .857-6.19 4 4 0 0 0 3.848-3zm10.142-3a2 2 0 1 1 -2 2 2 2 0 0 1 2-2zm3.858 3h6.284a4 4 0 0 0 3.848 3 45.891 45.891 0 0 1 .857 6.191 3.989 3.989 0 0 0 -2.7 2.81h-8.289a4 4 0 0 0 -2.858-2.859v-6.284a4 4 0 0 0 2.858-2.858zm10.142-3a2 2 0 1 1 -2 2 2 2 0 0 1 2-2zm2 18a2 2 0 1 1 2-2 2 2 0 0 1 -2 2zm-16 0a2 2 0 1 1 2-2 2 2 0 0 1 -2 2zm-16 0a2 2 0 1 1 2-2 2 2 0 0 1 -2 2zm35.858-3a4 4 0 0 0 -3.013-2.906 48.088 48.088 0 0 0 -.92-6.609 4 4 0 0 0 1.933-2.485h6.922a27.792 27.792 0 0 1 3.178 12zm3.762-14h-5.762a4 4 0 0 0 -3.858-3c-.124 0-.241.026-.362.037a24.086 24.086 0 0 0 -6.122-9 28.118 28.118 0 0 1 16.104 11.963zm-11.871-2.3a4 4 0 0 0 -1.607 2.3h-6.284a4 4 0 0 0 -2.858-2.858v-10.069c4.161.533 8.113 4.442 10.749 10.627zm-12.749-10.627v10.069a4 4 0 0 0 -2.858 2.858h-6.284a4 4 0 0 0 -1.607-2.3c2.636-6.185 6.588-10.094 10.749-10.627zm-6.518.961a24.1 24.1 0 0 0 -6.12 9c-.121-.008-.238-.034-.362-.034a4 4 0 0 0 -3.858 3h-5.762a28.111 28.111 0 0 1 16.102-11.966zm-16.102 41.966h5.754a3.971 3.971 0 0 0 3.418 2.975 4.1 4.1 0 0 0 .456.025c.12 0 .238-.019.357-.03a24.1 24.1 0 0 0 6.119 9 28.118 28.118 0 0 1 -16.104-11.97zm11.867 2.293c.082-.056.169-.1.247-.166a3.959 3.959 0 0 0 1.364-2.127h6.284a4 4 0 0 0 2.858 2.858v10.069c-4.163-.533-8.117-4.446-10.753-10.634zm12.753 10.634v-10.069a4 4 0 0 0 2.858-2.858h6.284a4 4 0 0 0 1.607 2.3c-2.636 6.185-6.588 10.094-10.749 10.627zm6.518-.961a24.1 24.1 0 0 0 6.12-9c.121.011.238.037.362.037a4 4 0 0 0 3.858-3h5.762a28.111 28.111 0 0 1 -16.102 11.963z" fill="#003a7f"/></g></svg>