<svg xmlns="http://www.w3.org/2000/svg" width="16" height="20" viewBox="0 0 16 20">
    <g fill="#E0EBF0" fill-rule="nonzero" transform="translate(.449 .002)">
        <path d="M14.286 8.571h-1.429V5.714A5.306 5.306 0 0 0 7.286.408 5.404 5.404 0 0 0 2.245 5.87v.151a.816.816 0 1 0 1.633 0v-.175a3.76 3.76 0 0 1 3.42-3.804 3.673 3.673 0 0 1 3.926 3.673v2.857H.816A.816.816 0 0 0 0 9.388v9.796c0 .45.365.816.816.816h13.47c.45 0 .816-.365.816-.816V9.388a.816.816 0 0 0-.816-.817zm-.817 9.796H1.633v-8.163h11.836v8.163z"/>
        <rect width="1.224" height="2.857" x="6.939" y="12.857" rx=".612"/>
    </g>
</svg>
