<svg xmlns="http://www.w3.org/2000/svg" width="20" height="20" viewBox="0 0 20 20">
    <path fill="#E0EBF0" fill-rule="nonzero" d="M10.068 13.084a3.293 3.293 0 0 1-3.29-3.29 3.295 3.295 0 0 1 3.29-3.29c1.81 0 3.283 1.47 3.29 3.278v.028a3.291 3.291 0 0 1-3.29 3.274zm0-13.086C4.667-.002.272 4.394.272 9.794c0 5.4 4.395 9.796 9.796 9.796.45 0 .816-.363.816-.816a.818.818 0 0 0-.816-.817c-4.501 0-8.163-3.661-8.163-8.163 0-4.502 3.662-8.163 8.163-8.163s8.163 3.66 8.163 8.163v1.62c0 .894-.727 1.62-1.62 1.62-.893 0-1.62-.726-1.62-1.62V9.81v-.016-4.082a.817.817 0 0 0-1.632 0v.433a4.898 4.898 0 0 0-3.29-1.273 4.929 4.929 0 0 0-4.925 4.922 4.929 4.929 0 0 0 4.924 4.922 4.909 4.909 0 0 0 3.715-1.702 3.248 3.248 0 0 0 2.828 1.653 3.255 3.255 0 0 0 3.253-3.253v-1.62c0-5.4-4.394-9.796-9.796-9.796z"/>
</svg>
