<svg xmlns="http://www.w3.org/2000/svg" width="19" height="23" viewBox="0 0 19 23">
    <g fill="#2E91FF" fill-rule="nonzero">
        <path d="M9.424 22.38c1.736 0 2.685-1.228 2.685-2.958H6.734c0 1.73.95 2.958 2.69 2.958zM18.137 16.586c-.86-1.133-2.55-1.797-2.55-6.87 0-5.207-2.3-7.3-4.443-7.803-.201-.05-.347-.117-.347-.329v-.162c0-.748-.613-1.378-1.361-1.373-.748-.011-1.362.625-1.362 1.373v.162c0 .207-.145.28-.346.33-2.149.507-4.443 2.595-4.443 7.802 0 5.073-1.691 5.732-2.55 6.87-.553.732-.028 1.775.887 1.775h15.633c.91 0 1.434-1.049.882-1.775z"/>
    </g>
</svg>
