<svg xmlns="http://www.w3.org/2000/svg" width="26" height="27" viewBox="0 0 26 27">
    <g fill="#2E91FF" fill-rule="nonzero">
        <path d="M12.91.277C5.785.271.006 6.042 0 13.167c-.006 7.125 5.765 12.904 12.89 12.91 7.124-.006 12.899-5.776 12.91-12.9 0-7.12-5.77-12.894-12.89-12.9zm-.02 23.654c-5.939 0-10.753-4.815-10.753-10.754 0-5.939 4.814-10.753 10.753-10.753 5.937.006 10.747 4.816 10.753 10.753 0 5.939-4.814 10.754-10.753 10.754z"/>
        <path d="M16.375 12.548a2.357 2.357 0 0 0 1.168-2.436c-.2-1.508-1.997-2.077-3.415-2.197V5.65H12.73v2.246h-.938V5.65h-1.398v2.246H7.578v1.448h1.049c.469 0 .699.14.699.52v6.22c0 .519-.26.679-.54.679H7.718v1.477h2.716v2.297h1.408v-2.297h.938v2.297h1.368v-2.297h.3c2.875 0 3.834-1.407 3.834-3.324a2.486 2.486 0 0 0-1.907-2.367zm-4.583-3.115h.998c.7 0 2.077.12 2.077 1.258a1.408 1.408 0 0 1-1.228 1.488h-1.847V9.433zm1.547 7.189v-.01h-1.547v-2.996h1.797c.42 0 1.997.14 1.997 1.259 0 1.118-.749 1.747-2.247 1.747z"/>
    </g>
</svg>
