<svg width="26" height="18" viewBox="0 0 26 18" fill="none" xmlns="http://www.w3.org/2000/svg">
<path fill-rule="evenodd" clip-rule="evenodd" d="M19.9333 4.4989H0.866667C0.388267 4.4989 0 4.8889 0 5.36557V16.6322C0 17.1132 0.388267 17.4989 0.866667 17.4989H19.9333C20.4117 17.4989 20.8 17.1132 20.8 16.6322V5.36557C20.8 4.8889 20.4117 4.4989 19.9333 4.4989ZM19.0667 13.6162C18.0301 13.9152 17.2137 14.7299 16.916 15.7656H3.88397C3.58627 14.7299 2.76987 13.9152 1.73333 13.6162V8.38157C2.76987 8.0869 3.58627 7.2679 3.88397 6.23223H16.916C17.2137 7.2679 18.0301 8.0869 19.0667 8.38157V13.6162ZM10.4 8.18223C9.0857 8.18223 8.01667 9.44757 8.01667 10.9989C8.01667 12.5546 9.0857 13.8156 10.4 13.8156C11.7143 13.8156 12.7833 12.5546 12.7833 10.9989C12.7833 9.44757 11.7143 8.18223 10.4 8.18223ZM10.4 12.5156C9.81283 12.5156 9.31667 11.8222 9.31667 10.9989C9.31667 10.1756 9.81283 9.48223 10.4 9.48223C10.9872 9.48223 11.4833 10.1756 11.4833 10.9989C11.4833 11.8222 10.9872 12.5156 10.4 12.5156ZM5.8227 10.3489H4.76667C4.40743 10.3489 4.11667 10.6392 4.11667 10.9989C4.11667 11.3586 4.40743 11.6489 4.76667 11.6489H5.8227C6.18193 11.6489 6.4727 11.3586 6.4727 10.9989C6.4727 10.6392 6.18193 10.3489 5.8227 10.3489ZM14.9769 10.3489H16.0333C16.3926 10.3489 16.6833 10.6392 16.6833 10.9989C16.6833 11.3586 16.3926 11.6489 16.0333 11.6489H14.9769C14.6181 11.6489 14.3269 11.3586 14.3269 10.9989C14.3269 10.6392 14.6181 10.3489 14.9769 10.3489Z" fill="white"/>
<path fill-rule="evenodd" clip-rule="evenodd" d="M20.8 9.89906C23.2574 9.89906 25.2495 7.90694 25.2495 5.44953C25.2495 2.99212 23.2574 1 20.8 1C18.3426 1 16.3505 2.99212 16.3505 5.44953C16.3505 7.90694 18.3426 9.89906 20.8 9.89906Z" fill="white" stroke="white"/>
<rect x="20.3" y="2.83286" width="1" height="5.23333" rx="0.5" fill="#2E91FF"/>
<rect x="18.1833" y="5.94952" width="1" height="5.23333" rx="0.5" transform="rotate(-90 18.1833 5.94952)" fill="#2E91FF"/>
</svg>
