<svg xmlns="http://www.w3.org/2000/svg" width="13" height="12" viewBox="0 0 13 12">
    <g fill="#2E91FF" fill-rule="nonzero">
        <path d="M11.95 10.907H1.045a.545.545 0 1 0 0 1.09H11.95a.545.545 0 1 0 0-1.09zM1.727 9.489a.545.545 0 1 0 0 1.09h9.541a.545.545 0 0 0 0-1.09h-.136V4.582h.136a.272.272 0 1 0 0-.545H1.727a.272.272 0 1 0 0 .545h.136v4.907h-.136zm8.314-4.907v4.907H8.406V4.582h1.635zm-2.726 0v4.907H5.679V4.582h1.636zm-4.362 0H4.59v4.907H2.953V4.582zM1.045 3.547h10.91a.545.545 0 0 0 .177-1.062L6.722.051a.546.546 0 0 0-.448 0L.822 2.504a.545.545 0 0 0 .223 1.043z"/>
    </g>
</svg>
